<?xml version="1.0" encoding="UTF-8"?>
<svg id="Capa_1" xmlns="http://www.w3.org/2000/svg" version="1.1" viewBox="0 0 244 105.79">
  <!-- Generator: Adobe Illustrator 30.6.0, SVG Export Plug-In . SVG Version: 2.1.4 Build 109)  -->
  <defs>
    <style>
      .st0 {
        fill: #3a3a3a;
      }

      .st1 {
        fill: #b89a4e;
      }
    </style>
  </defs>
  <g>
    <path class="st1" d="M121.32,47.86c-13.2,0-23.93-10.74-23.93-23.93S108.13,0,121.32,0s23.93,10.74,23.93,23.93-10.74,23.93-23.93,23.93ZM121.32,2.54c-11.8,0-21.4,9.6-21.4,21.4s9.6,21.4,21.4,21.4,21.4-9.6,21.4-21.4-9.6-21.4-21.4-21.4Z"/>
    <path class="st1" d="M119.52,46.39h-2.54v-19.14h-5.53c-.7,0-1.27-.57-1.27-1.27h0c0-.7.57-1.27,1.27-1.27h8.06v21.67Z"/>
    <path class="st1" d="M125.67,46.39h-2.54v-21.67h8.06c.7,0,1.27.57,1.27,1.27h0c0,.7-.57,1.27-1.27,1.27h-5.52v19.14Z"/>
    <path class="st1" d="M121.32,22.25c-3.85,0-6.99-3.13-6.99-6.99s3.13-6.99,6.99-6.99,6.99,3.13,6.99,6.99-3.13,6.99-6.99,6.99ZM121.32,10.81c-2.45,0-4.45,2-4.45,4.45s2,4.45,4.45,4.45,4.45-2,4.45-4.45-2-4.45-4.45-4.45Z"/>
  </g>
  <g>
    <path class="st1" d="M23.07,73.42c0,8.28-5.65,13.36-14.29,13.36H0v-26.91h8.79c8.63,0,14.29,5.23,14.29,13.55ZM8.79,83.17c6.35,0,9.76-3.64,9.76-9.76s-3.41-9.95-9.76-9.95h-4.37v19.71h4.37Z"/>
    <path class="st1" d="M42.31,63.43h-10.45v7.9h9.29v3.6h-9.29v8.25h10.45v3.6h-14.87v-26.94h14.87v3.6Z"/>
    <path class="st1" d="M57.02,59.87c6.39,0,9.52,3.68,9.52,8.05,0,3.17-1.7,6.58-6.23,7.7l6.66,11.15h-5.26l-6.19-10.76h-3.37v10.76h-4.41v-26.91h9.29ZM57.02,63.47h-4.88v9.02h4.88c3.45,0,4.99-1.9,4.99-4.57s-1.55-4.45-4.99-4.45Z"/>
    <path class="st1" d="M72.2,59.87h4.76l9.45,21.1,9.41-21.1h4.72v26.91h-4.41v-18.43l-8.21,18.43h-3.06l-8.25-18.43v18.43h-4.41v-26.91Z"/>
    <path class="st1" d="M122.56,81.28h-11.27l-1.94,5.5h-4.61l9.64-26.94h5.11l9.64,26.94h-4.65l-1.94-5.5ZM116.95,65.17l-4.41,12.5h8.79l-4.37-12.5Z"/>
    <path class="st1" d="M142.19,87.04c-5.38,0-9.52-2.94-9.52-7.7h4.72c.19,2.21,1.74,3.99,4.8,3.99s4.84-1.66,4.84-3.95c0-6.5-14.29-2.28-14.29-12.19,0-4.72,3.76-7.67,9.25-7.67,5.15,0,8.79,2.71,9.18,7.32h-4.88c-.15-1.82-1.74-3.48-4.53-3.56-2.56-.08-4.53,1.16-4.53,3.76,0,6.08,14.25,2.28,14.25,12.12,0,4.03-3.29,7.9-9.29,7.9Z"/>
    <path class="st1" d="M168.98,87.04c-7.59,0-13.74-5.69-13.74-13.78s6.16-13.74,13.74-13.74,13.74,5.69,13.74,13.74-6.08,13.78-13.74,13.78ZM168.98,83.21c5.34,0,9.21-3.87,9.21-9.95s-3.87-9.87-9.21-9.87-9.21,3.79-9.21,9.87,3.87,9.95,9.21,9.95Z"/>
    <path class="st1" d="M187.05,59.87h4.76l9.45,21.1,9.41-21.1h4.72v26.91h-4.41v-18.43l-8.21,18.43h-3.06l-8.25-18.43v18.43h-4.41v-26.91Z"/>
    <path class="st1" d="M237.42,81.28h-11.27l-1.94,5.5h-4.61l9.64-26.94h5.11l9.64,26.94h-4.65l-1.94-5.5ZM231.8,65.17l-4.41,12.5h8.79l-4.37-12.5Z"/>
  </g>
  <g>
    <path class="st0" d="M6.12,96.81H1.97v3.92h3.75v.51H1.97v3.95h4.15v.51H1.36v-9.4h4.75v.51Z"/>
    <path class="st0" d="M37.43,105.79c-1.89,0-2.99-1.1-3.09-2.41h.63c.11.78.7,1.89,2.46,1.89,1.42,0,2.29-.86,2.29-1.93,0-3.04-5.25-1.14-5.25-4.71,0-1.34,1.12-2.42,2.88-2.42s2.73,1.03,2.92,2.13h-.64c-.13-.66-.82-1.61-2.29-1.61-1.23-.01-2.26.7-2.26,1.89,0,3.04,5.25,1.18,5.25,4.71,0,1.2-.96,2.46-2.89,2.46Z"/>
    <path class="st0" d="M68.13,96.3h5.96v.51h-2.68v8.89h-.6v-8.89h-2.68v-.51Z"/>
    <path class="st0" d="M108.38,101.14h-5.49v4.55h-.6v-9.4h.6v4.34h5.49v-4.34h.6v9.4h-.6v-4.55Z"/>
    <path class="st0" d="M142.71,96.81h-4.15v3.92h3.75v.51h-3.75v3.95h4.15v.51h-4.75v-9.4h4.75v.51Z"/>
    <path class="st0" d="M170.54,96.3h5.96v.51h-2.68v8.89h-.6v-8.89h-2.68v-.51Z"/>
    <path class="st0" d="M204.7,96.3h.6v9.4h-.6v-9.4Z"/>
    <path class="st0" d="M238.39,96.2c2.18,0,3.64,1.1,4.31,2.85h-.7c-.52-1.37-1.74-2.32-3.61-2.32-2.15,0-3.87,1.61-3.87,4.27s1.71,4.24,3.87,4.24c1.87,0,3.09-.95,3.61-2.32h.7c-.67,1.75-2.13,2.85-4.31,2.85-2.57,0-4.48-1.98-4.48-4.78s1.91-4.81,4.48-4.81Z"/>
  </g>
</svg>